<svg width="256" height="256" viewBox="0 0 256 256" fill="none" xmlns="http://www.w3.org/2000/svg">
  <circle cx="186" cy="70" r="28" fill="#5059C9"/>
  <path d="M216 108H118C109.163 108 102 115.163 102 124V176C102 215.765 134.235 248 174 248C213.765 248 246 215.765 246 176V138C246 121.431 232.569 108 216 108Z" fill="#5059C9"/>
  <circle cx="104" cy="56" r="32" fill="#7B83EB"/>
  <path d="M136 100H46C37.1634 100 30 107.163 30 116V168C30 203.346 58.6538 232 94 232C129.346 232 158 203.346 158 168V122C158 109.85 148.15 100 136 100Z" fill="#7B83EB"/>
  <rect x="44" y="64" width="108" height="128" rx="16" fill="#4E58CA"/>
  <path d="M126 84H70V100H89V158H107V100H126V84Z" fill="white"/>
</svg>
